<svg xmlns="http://www.w3.org/2000/svg" width="400" height="400" viewBox="0 0 100 100">
<path d="M 20 39 C 13 30 1 24 1 11 C 1 4 5 2 10 2 C 15 2 18 5 20 9 C 22 5 25 2 30 2 C 35 2 39 4 39 11 C 39 24 27 30 20 39 Z" fill="#222" transform="scale(2.5)"/>
<path transform="translate(0,-3)" fill="#FFF" d="M49.786 90.522c-.095-2.477-1.166-5.19-2.903-7.36l-.209-.261v1.566c0 1.455-.259 3.258-.443 3.075-.02-.019-.145-.367-.28-.772-.318-.961-1.251-2.851-1.954-3.957-.611-.962-2.641-3.703-2.699-3.644-.02.02.116.726.303 1.569l.394 1.992.055.46-.246-.251c-4.06-4.136-5.942-6.654-6.802-9.101-.291-.829-.305-.839-.377-.265-.155 1.244.058 3.032.539 4.516.297.916.318.896-.327.313-3.375-3.054-5.285-8.05-4.531-11.85.131-.658.117-.655-.422.098-1.135 1.585-1.625 3.108-1.731 5.374l-.057 1.213-.389-.796c-1.776-3.63-1.603-7.796.474-11.449.388-.682.356-.699-.41-.222-1.107.69-3.054 2.802-3.054 3.313 0 .043-.038.078-.084.078-.116 0-.026-1.55.134-2.328a11.72 11.72 0 0 1 3.667-6.214c.389-.336.694-.625.676-.643-.195-.195-2.424.692-3.434 1.367-.436.291-.792.513-.792.492s.185-.404.41-.852c1.349-2.675 3.512-4.451 6.741-5.533 1.189-.398 1.176-.386.527-.494-.957-.16-1.606-.191-2.24-.107-.781.103-.775.129-.098-.428 1.212-.997 2.507-1.623 4.197-2.027l.959-.229.937.236c.701.176.916.261.854.336-.131.158.018.199.797.221l.717.028c0 .004-.272.17-.606.368-.976.58-2.6 1.924-2.475 2.049.018.018.314-.042.658-.133s.945-.19 1.336-.218l.711-.052-.544.448c-1.738 1.43-3.149 3.49-3.897 5.686-.319.938-.313.96.153.531.766-.706 1.792-1.302 2.855-1.659.944-.317.953-.297.273.574-1.698 2.173-2.733 5.022-2.728 7.512l.001.528.363-.664c.832-1.525 1.985-2.654 3.504-3.432.495-.253.899-.444.899-.423s-.213.35-.474.731c-1.685 2.466-2.382 5.869-1.834 8.953.189 1.066.21 1.079.461.293a8.69 8.69 0 0 1 3.225-4.313c.598-.404.614-.399.351.122-1.528 3.021-.936 7.209 1.548 10.945l.612.92.02-.544c.1-2.709.892-5.105 2.186-6.606l.304-.352.007 1.116c.011 1.777.31 2.786 1.711 5.758l1.042 2.285.352.822.059-.981c.118-1.967.663-3.859 1.383-4.799l.157-.205.058.497c.108.937.363 2.004.91 3.811.988 3.265 1.231 5.752.746 7.623-.19.732-.184.75.128.386 1.678-1.96 2.898-4.924 2.966-7.206.022-.75.09-.722.432.183a7.21 7.21 0 0 1 .524 2.498l.05.942.194-.285c.851-1.253 1.547-3.217 1.746-4.933.066-.564.102-.546.406.198s.47 1.529.494 2.335c.025.829.034.829.531.032.823-1.321 1.262-2.656 1.347-4.102.058-.977.057-.976.42-.495 1.918 2.548.935 7.018-2.312 10.511-.535.576-.577.604-.508.349.153-.564.272-1.92.212-2.406l-.062-.494-.228.502c-1.189 2.615-4.549 6.101-7.857 8.153l-.658.408zm19.342-14.636c.577-.401.584-.393-.347-.393-.717 0-.93-.032-1.269-.188-.279-.129-.375-.148-.303-.063.142.171.044.159-.667-.083-1.646-.56-3.022-2.028-3.686-3.932l-.146-.418-.103.251c-.056.138-.127.646-.156 1.128l-.053.877-.28-.437c-.765-1.195-.96-2.992-.492-4.537.118-.391.2-.726.181-.745-.083-.083-1.358 1.336-1.609 1.79l-.276.502.038-1.046c.047-1.285.344-2.219 1.139-3.576.147-.25.214-.439.158-.439-.179 0-1.192.594-1.614.946-.286.239-.394.295-.35.181a24.94 24.94 0 0 0 .231-.659c.367-1.086.978-2.033 1.85-2.868l.542-.519.142-.778c.258-1.418.69-2.52 2.384-6.08 1.052-2.21 1.075-2.291.38-1.289-.936 1.349-2.272 2.929-2.178 2.576.102-.384.373-1.751.351-1.773-.013-.013-.274.346-.58.799-1.278 1.889-3.71 4.696-4.068 4.696-.035 0 .039-.367.165-.816.293-1.043.318-1.044-.724.028-1.207 1.242-1.424 1.518-1.882 2.406-.394.762-.396.765-.488.524-.283-.743-.3-2.101-.041-3.217.164-.706.136-.709-.374-.037-1.466 1.931-2.112 4.9-1.514 6.962.133.457.047.413-.731-.378-1.739-1.767-2.688-4.028-2.725-6.492-.012-.76-.022-.805-.143-.644-.477.628-.912 2.447-.913 3.823-.001 1.095-.029 1.103-.5.139-.577-1.181-.779-2.107-.789-3.614-.008-1.224-.014-1.267-.153-1.087-.222.288-.644 1.519-.763 2.224-.117.695-.131.691-.437-.12-.597-1.586-.614-4.162-.037-5.679.271-.713-.767.532-1.288 1.545-.662 1.286-1.042 2.879-1.059 4.433l-.008.711-.241-.502c-1.108-2.307-.989-5.02.324-7.402l.424-.788c.049-.115-.542.257-1.215.764a12.66 12.66 0 0 0-1.901 1.864l-.233.293.053-.293c.182-1.017.668-2.136 1.357-3.124.393-.563.43-.648.262-.596-.298.092-1.147.53-1.64.845-.572.365-.567.369-.262-.241.507-1.012 1.243-1.948 2.835-3.609.483-.504.803-.888.711-.854-.471.176-1.157.317-1.755.362l-.667.05.535-.494c.567-.524 1.761-1.851 1.761-1.958 0-.035-.16-.006-.355.064-.351.126-.362.124-.899-.156l-.615-.315c-.039-.017-.046.048-.015.146.07.22-.098.23-.86.05-1.231-.29-2.073-.904-3.126-2.28-1.378-1.801-2.388-2.609-3.885-3.108-.741-.247-2.396-.51-2.508-.398-.089.089 1.473 1.961 2.306 2.764.848.817.84.831-.277.46-.634-.21-.643-.185-.152.405 1.412 1.696 3.555 2.786 5.48 2.786.295 0 .701.059.903.131s.517.159.701.192l.335.06-.226.15c-3.656 2.424-9.592-1.182-12.033-7.308-.532-1.334-.328-1.462 2.305-1.453 3.419.011 5.516.889 8.233 3.444 1.755 1.65 2.422 2.051 2.064 1.242l-.207-.469.434.254c2.373 1.388 4.157 2.057 3.377 1.265-.485-.493-.486-.484.043-.554.407-.054.481-.104 1.15-.771l.715-.713-.335.059c-.788.139-1.759.272-1.787.244-.199-.193 1.511-1.803 2.499-2.353l.777-.432-.326-.064c-.179-.035-.605-.063-.946-.061l-.62.003.224-.193c.77-.662 1.972-1.168 3.149-1.325l.795-.106-.586-.273c-.322-.15-.914-.353-1.316-.45-.911-.221-.909-.245.041-.48 1.501-.372 3.622-.216 5.079.373.634.256.632.21-.015-.374l-.523-.471.478.075c1.482.232 3.056.972 4.563 2.143.792.615.847.622.567.069l-.202-.398.306.057c.781.144 1.923.801 3.316 1.907.459.365.977.744 1.149.842.582.332-.201.432-1.399.178-.71-.15-.71-.15-.502.011 1.098.85 2.952 1.142 5.562.875 11.487-1.176 22.642 4.048 20.87 9.773-.323 1.043-.333 1.253-.099 2.075.374 1.312.335 1.954-.173 2.888-.859 1.578-2.246 1.896-3.491.8l-.389-.342.251-.26c.249-.258.677-1.075.679-1.295 0-.063-.262.134-.584.437-2.068 1.951-4.888 2.098-8.29.432-5.916-2.897-11.557 2.56-10.935 10.578.406 5.232 4.651 9.105 8.305 7.579.355-.148.354-.156.067.43-.627 1.281-2.516 2.374-4.079 2.36l-.335-.003zm-.841-22.378c1.349-.69 2.47-.945 3.798-.864l.827.05-.237-.178c-1.24-.931-1.433-1.851-.74-3.538.038-.092-.248.136-.634.507s-1.145.988-1.685 1.371c-1.098.778-1.32.982-.983.902.355-.084 1.048-.169 1.004-.123-.023.024-.349.271-.724.548-.812.601-1.5 1.283-2.003 1.988-.492.689-.464.721.145.169.282-.255.837-.63 1.234-.833zm14.552-1.218c1.751-1.247.182-3.966-3.014-5.225-2.368-.933-2.281 1.951.097 3.251.708.387.934.638 1.243 1.384.341.823 1.013 1.06 1.674.589zm4.589-2.245c-.032-.432-.096-.599-.194-.501-.082.082-.146 1.376-.076 1.54.106.251.308-.526.27-1.039zm-14.211-.641c.107-.339.288-.753.402-.921.245-.361.474-.969.364-.969-.428 0-.997 1.007-1.063 1.88-.06.798.047.801.297.01zM55.16 47.596c.485-.483 1.142-1.471 1.306-1.964.086-.259-1.25 1.176-1.77 1.902-.255.356-.499.669-.542.695s-.077.085-.077.131c0 .159.539-.221 1.084-.764zm-.872-1.494c.281-.128 1.043-.888 1.043-1.04 0-.025-.216.086-.481.245-.844.509-1.723.649-2.53.402-.185-.056-.196-.048-.099.07.371.453 1.422.617 2.068.324zm-.382-1.565c.481-.143.975-.422 1.175-.665.368-.447.935-.784 1.545-.92.497-.111.698-.204.982-.457.398-.355.394-.467-.011-.325-.69.24-1.438-.058-2.429-.967-.708-.65-1.098-.868-.586-.327.273.289.277.301.079.248-1.397-.377-2.154-.07-3.594 1.459-1.062 1.127-1.147 1.243-.777 1.055.827-.421 1.505-.468 1.825-.127.135.144.415.373.622.509l.376.247-.398-.029c-.508-.037-.476.094.068.283.517.179.575.18 1.121.018zm-.734-1.892c-.22-.22.016-.736.336-.736.094 0 .4.32.4.418 0 .287-.536.518-.736.318zm-1.697-2.357c.506-.24.626-.262 1.471-.272.506-.006 1.014-.036 1.129-.068.149-.041.348.013.69.186.585.296.608.229.084-.237-1.436-1.278-3.311-.929-4.327.804-.285.486-.266.516.095.155.168-.168.554-.424.857-.567zm19.657 32.023c-2.042-.496-3.772-2.153-4.499-4.309-.405-1.2-.417-1.503-.033-.791.41.76.493.875 1.211 1.679l.603.676.528-.21c.694-.275.733-.233.733.786l.01.79c.006 0 .19-.08.41-.177.397-.175.403-.176.91-.021 1.343.41 2.478.137 3.355-.806.674-.725.734-.755.925-.463.341.52-.334 2.219-.882 2.219a.39.39 0 0 0-.258.131c-.434.523-1.904.764-3.014.494zm2.615-3.239c-.759-1.834-1.136-4.762-.849-6.587.208-1.321.966-3.356.849-2.279-.042.383.085.289.233-.173.502-1.57 2.585-3.15 4.059-3.077 1.384.068 3.011.025 3.429-.09.404-.112 1.213.01 1.213.182 0 .058-.614.281-1.152.418-.197.05-.931.102-1.631.115-4.732.088-7.052 4.736-5.448 10.919l.204.788-.183.195c-.312.332-.448.255-.724-.411zm-3.427.296c-.128-.024-.234-.144-.32-.359-.151-.378-.273-.443-.612-.324-.754.263-1.786-1.66-2.807-5.232-.238-.833-.216-.897.284-.827 1.189.168 2.539 1.573 3.238 3.373l.24.618.028-.414c.034-.511-.13-1.589-.29-1.898-.196-.381.017-.267.626.335 1.585 1.564 1.838 3.904.494 4.574-.427.213-.509.227-.883.156zM31.785 46.215c-9.964-1.3-19.449-5.958-24.352-11.959-1.49-1.824-2.766-4.465-2.355-4.876.177-.177.326-.111.85.375 1.533 1.42 3.652 2.438 3.649 1.752 0-.052-.231-.395-.512-.763-2.732-3.573-3.928-7.309-3.211-10.037.324-1.234.834-1.3 1.045-.136.328 1.807 1.464 3.861 2.651 4.791 1.356 1.062 1.578.863 1.084-.974-1.164-4.319-.572-8.434 1.524-10.609 1-1.037 1.327-.859 1.125.613-.345 2.521.327 5.162 1.678 6.594.86.912 1.097.636 1.347-1.575.409-3.61 1.815-6.497 4.033-8.282 1.786-1.437 3.33-1.522 2.45-.134-2.114 3.333-2.38 8.071-.619 11.009.998 1.665 1.42 1.471 1.824-.836.699-3.991 2.443-7.232 4.674-8.686 1.512-.985 1.749-.447.753 1.701-2.558 5.512-1.936 12.541 1.251 14.129 1.896.945 5.273-3.959 7.461-10.833.483-1.517.634-1.784.983-1.734.745.106.567 2.572-.41 5.674l-1.248 4.182c-.991 3.814.113 6.613 3.068 7.78 1.652.652 3.407-1.919 4.132-6.05.473-2.7 1.466-1.834 1.469 1.282.002 1.969-.398 3.537-1.385 5.428-.656 1.258-.733 1.112 1.007 1.936l1.286.61-.461.277c-.697.42-1.247.842-1.399 1.075-.193.295-.126.314-2.741-.8-6.377-2.718-7.973-4.553-7.49-8.61l.065-.544-.169.209c-1.88 2.332-1.498 5.482.966 7.958l.719.723-.697-.249c-2.643-.943-6.802-1.062-8.163-.234-1.259.765 2.243 6.946 5.25 9.267l.79.618c.116.1-.951.067-1.92-.059zm49.308-4.729c-2.598-1.04-7.498-1.916-10.727-1.918-.403 0-.732-.014-.732-.031s.109-.271.242-.565c.443-.979.863-3.088.725-3.638l-.056-.222-.644.057c-2.216.195-4.364.914-6.366 2.131-.849.516-.746.512-1.398.047-.6-.428-.618-.465-.322-.659 2.205-1.445 3.373-3.885 2.644-5.526-.529-1.191-1.113-1.955-1.008-1.317.37 2.25-.593 3.973-3.174 5.678l-.699.461-.681-.291c-.983-.42-1.732-.602-1.601-.391.089.144-.037.094-.613-.245-.307-.181-.867-.435-1.245-.563l-.686-.234-.417-.879c-.799-1.686-1.11-3.29-.943-4.873.173-1.641.697-2.482 1.221-1.958.197.197.203.223.464 1.979.493 3.322 2.254 5.748 3.642 5.018 3.001-1.578 3.317-3.625 1.343-8.685-1.099-2.816-1.477-5.297-.966-6.329.441-.889.833-.568 1.214.995 1.266 5.187 4.536 10.232 6.322 9.752 2.91-.784 3.368-7.433.899-13.061-.745-1.697-.734-2.251.039-1.996 1.78.587 4.111 5.139 4.779 9.331.358 2.244.942 2.395 2.125.55 2.136-3.329 2.229-7.969.244-12.162-.818-1.728-.181-2.072 1.512-.817 2.283 1.693 3.561 4.216 4.324 8.539.295 1.67.918 1.719 1.692.133 1.185-2.431 1.269-5.061.257-8.14-.483-1.47.142-1.612 1.484-.337 1.967 1.869 2.901 4.61 2.912 8.553.005 1.91.016 1.966.399 1.966.93 0 2.396-2.583 2.669-4.701.155-1.199.475-1.279.944-.236.967 2.155.84 4.982-.371 8.22-.534 1.429-.565 1.652-.226 1.652.91 0 2.512-1.675 3.081-3.22.844-2.294 1.298.819.481 3.303-.38 1.156-1.198 2.703-2.08 3.932-.955 1.332.613.819 2.107-.689 1.077-1.087 1.342-.941.867.474-1.363 4.06-6.721 8.808-12.509 11.086l-.376.148zm-13.327-2.399c.41-.502 1.062-1.779 1.016-1.989-.077-.353-2.412.717-3.309 1.515l-.494.44-.514-.303c-.616-.363-.618-.359.489-1.1 1.161-.777 2.792-1.353 4.201-1.483l.582-.054-.057.368c-.111.716-.391 1.616-.684 2.201-.428.855-.465.885-1.09.885h-.532z"/>
</svg>
