<?xml version="1.0" encoding="UTF-8" standalone="no"?>
<svg
   xmlns:dc="http://purl.org/dc/elements/1.1/"
   xmlns:cc="http://creativecommons.org/ns#"
   xmlns:rdf="http://www.w3.org/1999/02/22-rdf-syntax-ns#"
   xmlns:svg="http://www.w3.org/2000/svg"
   xmlns="http://www.w3.org/2000/svg"
   version="1.1"
   id="svg6385"
   viewBox="0 0 372.04725 262.20473"
   height="74mm"
   width="105mm">
  <defs
     id="defs6387" />
  <metadata
     id="metadata6390">
    <rdf:RDF>
      <cc:Work
         rdf:about="">
        <dc:format>image/svg+xml</dc:format>
        <dc:type
           rdf:resource="http://purl.org/dc/dcmitype/StillImage" />
        <dc:title></dc:title>
      </cc:Work>
    </rdf:RDF>
  </metadata>
  <g
     transform="translate(0,-790.15748)"
     id="layer1">
    <path
       id="path3674-3-2-7"
       d="m 166.96565,1045.274 c 1.53177,-0.125 1.77079,-0.2405 1.77079,-0.8567 0,-0.3918 -0.96612,-2.1673 -2.14697,-3.9455 -1.18082,-1.7783 -2.80212,-4.4824 -3.60291,-6.0089 l -1.45591,-2.776 0.93199,-5.456 c 0.51263,-3.0008 1.75742,-8.4302 2.76621,-12.0653 1.00878,-3.6349 1.99357,-7.193 2.18829,-7.9067 0.19487,-0.7138 0.416,-1.236 0.49159,-1.1604 0.46628,0.4662 0.91794,6.4574 1.12608,14.9379 0.19831,8.0792 0.33582,9.9577 0.78983,10.7935 0.3023,0.5567 1.85029,2.2983 3.43993,3.8704 3.24622,3.2105 3.52508,3.8757 2.89602,6.9059 -0.33931,1.6343 -0.31853,2.0249 0.14545,2.7329 l 0.54123,0.826 6.99113,0 c 3.84512,0 7.21179,-0.1453 7.48147,-0.3153 0.68186,-0.4313 0.19326,-1.2692 -3.10994,-5.3326 -4.87519,-5.997 -6.99573,-9.0014 -7.55679,-10.7058 -0.83759,-2.5447 -0.99767,-14.7939 -0.31455,-24.0708 0.29554,-4.0138 0.69411,-10.86461 0.88571,-15.22437 0.36001,-8.19177 0.77517,-12.67701 1.38926,-15.00971 0.4229,-1.60624 4.20558,-10.03909 7.03535,-15.68412 2.30326,-4.59459 4.19688,-7.78084 6.21463,-10.45629 0.76942,-1.02039 1.58579,-2.28528 1.81413,-2.81102 0.54671,-1.25904 1.06519,-6.31259 1.07249,-10.45346 l 0.003,-3.31435 1.59397,-2.08255 c 2.96441,-3.87296 5.46858,-6.14554 7.68173,-6.97166 1.11307,-0.41538 2.65356,-0.83136 3.42325,-0.92437 1.89584,-0.22917 2.26151,0.40308 3.16807,5.47638 0.89429,5.00432 1.09329,5.42918 1.81087,3.86693 l 0.53662,-1.16868 -0.17269,1.20377 c -0.14243,0.99276 0.27686,3.11928 0.7198,3.65066 0.0608,0.0726 0.41243,-0.231 0.78194,-0.67461 l 0.67181,-0.80676 0.0121,2.0882 c 0.003,1.14849 0.1628,2.182 0.34826,2.29658 0.18539,0.115 0.66591,-0.3492 1.06798,-1.03068 l 0.73093,-1.23887 0.5438,1.47209 c 0.29907,0.80956 0.67877,1.47207 0.84368,1.47207 0.16503,0 0.52156,-0.79686 0.79252,-1.77085 0.48167,-1.73152 1.08082,-2.37486 1.08082,-1.1606 0,0.33549 0.19145,0.87212 0.42555,1.19207 0.70673,0.96652 1.63146,-0.0202 1.85101,-1.9609 l 0.18438,-1.63528 0.37167,1.1499 c 0.20452,0.63245 0.52346,1.12873 0.709,1.1027 0.1856,-0.0263 0.80331,-1.17149 1.37289,-2.54532 0.67207,-1.62117 1.51786,-2.96616 2.40944,-3.83161 3.7479,-3.63815 9.25484,-9.70986 10.32754,-11.38671 1.39881,-2.18684 2.29556,-2.85681 3.9355,-2.94073 2.89898,-0.14728 3.05418,-0.0807 5.19417,2.2405 1.13175,1.22778 2.81663,2.66818 3.74419,3.20117 1.65799,0.95221 1.77486,0.96856 6.91459,0.96977 8.44414,0 8.67071,-0.16342 9.19499,-6.6955 0.41269,-5.14209 -0.0799,-11.58016 -1.09218,-14.27579 -0.77468,-2.06256 -2.60816,-4.42916 -4.55779,-5.88267 -1.38873,-1.03513 -10.98027,-6.36665 -14.39515,-8.00154 -1.08889,-0.52129 -3.13692,-2.05309 -4.75817,-3.55887 -2.32086,-2.15536 -3.2446,-2.77758 -5.00282,-3.36936 -1.18606,-0.39924 -2.53392,-1.0158 -2.99529,-1.37022 l -0.8389,-0.6444 0.8389,-0.91042 c 0.88748,-0.9632 3.82068,-2.49879 4.78355,-2.50434 0.87015,-0.003 13.26258,-3.87214 16.05238,-5.00926 2.70674,-1.10324 10.40786,-5.36675 14.00863,-7.75547 4.56044,-3.02538 8.52218,-8.19565 8.90886,-11.62639 0.19811,-1.75754 -0.40029,-2.42656 -1.87978,-2.10163 -0.54245,0.11903 -4.20245,2.03205 -8.13329,4.25085 -3.93081,2.21885 -7.28781,3.94725 -7.45993,3.84084 -0.17188,-0.10651 -0.32166,-2.87861 -0.3324,-6.16042 -0.0202,-6.35092 -0.24247,-8.52795 -0.89116,-8.74417 -1.06998,-0.3567 -3.84149,5.74862 -6.01277,13.2453 -0.85708,2.95932 -1.86872,5.93273 -2.24805,6.60767 -1.23739,2.20171 -5.12245,3.6965 -9.8296,3.78199 -3.18556,0.0578 -4.2337,-0.41683 -6.60823,-2.99289 l -1.40568,-1.52498 2.1237,-2.5305 c 1.16808,-1.39183 2.9966,-3.77821 4.06349,-5.30307 2.02313,-2.89159 7.9228,-14.2119 9.52545,-18.27749 1.19586,-3.0337 2.00972,-7.51655 1.48033,-8.15435 -1.17641,-1.41757 -2.80284,0.37529 -7.72249,8.51282 -2.16255,3.57705 -3.93807,6.05864 -5.47912,7.65824 -1.25395,1.30154 -2.33862,2.30459 -2.41039,2.22904 -0.0717,-0.0756 0.37622,-1.65529 0.9954,-3.51041 2.59764,-7.78242 2.683,-8.32455 2.68248,-17.03354 -2.8e-4,-8.9901 -0.2582,-10.742 -2.56539,-17.43638 -1.44284,-4.18635 -1.77843,-4.82519 -2.53489,-4.82519 -0.38279,0 -0.46668,1.58933 -0.47604,9.02267 -0.0141,10.89753 -0.35481,15.252 -1.38617,17.69408 -1.68765,3.99624 -5.25546,8.95979 -7.14125,9.93498 -0.83497,0.43178 -1.0516,0.43279 -1.69991,0.008 -1.42151,-0.93139 -2.9058,-7.38513 -4.94047,-21.48141 -2.90242,-20.10803 -3.3273,-20.80933 -6.2327,-10.28758 -2.90681,10.52688 -3.58095,12.78249 -4.53361,15.16888 -0.52049,1.30382 -1.08087,2.37058 -1.2453,2.37058 -0.16441,0 -3.11208,-4.22987 -6.55035,-9.39967 -8.07647,-12.14373 -12.01635,-16.52597 -12.40598,-13.79898 -0.0585,0.40839 1.34237,5.33981 3.11269,10.95869 3.48391,11.05773 3.84393,12.40861 3.30704,12.40861 -0.35084,0 -3.9493,-3.07526 -9.85522,-8.42222 -7.05953,-6.39134 -9.70206,-8.19886 -12.57176,-8.59899 -3.40084,-0.47428 -6.98439,1.48271 -8.25073,4.50578 -0.64925,1.54981 -0.65594,4.91511 -0.0121,6.44408 0.59959,1.42551 8.38694,9.55962 15.08674,15.75847 4.97098,4.59936 9.12173,7.60054 15.86752,11.47304 11.58074,6.64799 21.31418,12.46162 22.86213,13.65514 3.08213,2.37652 6.6743,7.68481 6.41795,9.48413 -0.0947,0.66469 -0.2882,0.72466 -2.1738,0.67381 -1.13836,-0.0309 -2.53471,-0.29631 -3.10296,-0.59014 -0.56821,-0.29386 -2.11642,-1.82073 -3.44048,-3.39308 -2.58513,-3.06988 -5.28839,-5.11087 -8.22417,-6.20924 -2.58485,-0.96717 -6.98537,-1.80121 -9.76772,-1.85144 -2.01025,-0.0364 -2.4001,0.0482 -2.5,0.54192 -0.0649,0.3217 0.95598,2.52254 2.26907,4.89082 2.42026,4.36519 4.33289,8.70761 3.9875,9.053 -0.10431,0.10431 -1.53249,-0.25611 -3.17413,-0.80044 -5.02669,-1.66686 -7.62432,-1.92284 -19.51232,-1.92284 -13.48924,0 -18.50073,0.5326 -25.46588,2.70635 -3.39742,1.0603 -6.22226,2.52558 -12.0198,6.23493 -6.2732,4.01376 -9.71062,5.72814 -11.92827,5.94944 -1.07625,0.10699 -5.04173,-0.18157 -9.44437,-0.68833 -10.28277,-1.18339 -16.98267,-1.55136 -28.164231,-1.54692 -10.317017,0 -16.311286,0.37443 -19.719529,1.21809 -6.120465,1.51526 -16.116067,6.20607 -26.996061,12.66895 -10.800733,6.41607 -13.861402,8.82967 -15.529271,12.24671 -1.712393,3.50822 -3.501325,12.30118 -3.925137,19.29322 -0.176722,2.91633 -0.120438,3.57479 0.369382,4.32243 0.709816,1.08334 1.54023,0.96936 5.216523,-0.71596 5.580055,-2.55824 11.815455,-7.81351 14.063645,-11.85292 0.541989,-0.97378 1.137156,-1.72022 1.322655,-1.65869 0.511889,0.16946 0.75926,1.75814 0.803341,5.15865 0.04378,3.39645 -0.654217,6.49435 -4.103655,18.20686 -2.026741,6.88149 -2.08002,6.96923 -6.649912,10.97333 -7.144957,6.26034 -10.393544,8.79497 -13.997938,10.92231 -4.578122,2.70208 -8.353852,5.77515 -9.24743,7.52685 -1.115611,2.18663 -1.372344,4.92744 -1.710295,18.25607 -0.181362,7.1494 -0.419333,13.90969 -0.529018,15.02289 -0.484454,4.9157 -2.451763,15.3028 -4.5677536,24.1165 -0.6374716,2.6556 -0.9378199,4.6226 -0.8113703,5.314 0.1103521,0.6036 0.8879303,2.1011 1.7277053,3.3276 1.4184006,2.072 1.5492876,2.4475 1.8436036,5.292 0.476647,4.6073 0.287577,4.4678 6.406212,4.7326 2.827278,0.1231 6.634277,0.2226 8.459946,0.2226 3.217742,0 3.319278,-0.022 3.318066,-0.759 -0.0041,-1.833 -3.127726,-5.1193 -6.64055,-6.9841 -3.709278,-1.9694 -4.114307,-2.9951 -4.134823,-10.471 -0.02784,-10.1917 3.607923,-28.14377 8.055702,-39.77515 2.253798,-5.89378 2.823849,-6.92345 5.207465,-9.40584 2.823325,-2.94013 5.190479,-4.42693 14.343778,-9.00941 7.006665,-3.50783 19.84719,-9.60636 20.226116,-9.60636 0.359736,0 -0.349898,4.11807 -1.076328,6.24661 -1.024811,3.00246 -1.996828,4.90728 -3.219041,6.30835 -0.530411,0.60804 -1.326328,1.78861 -1.768701,2.6234 -0.754518,1.42387 -0.804327,1.86548 -0.804327,7.12942 l 0,5.61155 2.82894,5.51935 c 1.555895,3.03555 3.201071,6.50587 3.655989,7.71168 1.479102,3.9207 5.772717,22.4782 6.65788,28.776 0.290261,2.0653 1.322704,3.2113 4.383489,4.8658 2.558949,1.3833 3.752831,2.779 4.07463,4.7632 0.332159,2.0485 1.191605,4.5313 1.925087,5.5613 l 0.694114,0.9748 7.165477,-0.1391 c 7.844828,-0.1514 8.246811,-0.2536 8.246811,-2.0824 0,-1.435 -3.004493,-4.2603 -6.784088,-6.3793 -4.354703,-2.4415 -5.388726,-3.6838 -7.529313,-9.0455 -0.994145,-2.4904 -2.441256,-5.9339 -3.215824,-7.6527 -3.381374,-7.5032 -5.958073,-23.02125 -5.694727,-34.29579 l 0.11903,-5.09751 1.079162,-1.46725 c 2.245364,-3.0531 8.51211,-9.69593 15.396781,-16.32121 11.613203,-11.17548 11.812253,-11.29531 16.424423,-9.8886 3.6129,1.1019 13.00094,2.98916 18.70599,3.7606 6.3589,0.85981 12.96129,0.8005 17.20217,-0.15534 1.85513,-0.41779 4.01875,-0.84225 4.8081,-0.94311 l 1.4351,-0.18359 1.13762,2.48945 c 0.62569,1.3692 1.91521,4.56553 2.86543,7.1032 2.0306,5.42231 2.11797,6.56435 1.01756,13.30038 -0.59857,3.66397 -0.7511,6.57464 -0.97021,18.5139 l -0.25996,14.16647 -1.19321,4.2162 c -0.65629,2.3189 -1.89359,6.0942 -2.7496,8.3894 -0.85597,2.2953 -1.64514,5.0275 -1.75365,6.0715 -0.1854,1.7823 -0.10233,2.0781 1.36516,4.8579 0.92309,1.7488 1.76805,3.9375 2.06495,5.349 0.50344,2.393 1.39476,4.0746 2.4628,4.6463 0.65676,0.3514 8.81034,0.6915 11.44123,0.4771 z"
       style="display:inline;fill:#ffffff;fill-opacity:1" />
    <circle
       transform="scale(-1,1)"
       style="display:inline;fill:#ffffff;fill-opacity:1;stroke:#000000;stroke-width:1.92029178;stroke-miterlimit:4;stroke-dasharray:none;stroke-opacity:1"
       r="10.183886"
       cy="964.58691"
       cx="-222.16196"
       id="path3680-6-7-3-2-8-9-0-0-6-6-3-7" />
    <circle
       transform="scale(-1,1)"
       style="display:inline;fill:#ffffff;fill-opacity:1;stroke:#000000;stroke-width:1.92029178;stroke-miterlimit:4;stroke-dasharray:none;stroke-opacity:1"
       r="10.183886"
       cy="988.08844"
       cx="-222.03143"
       id="path3680-6-7-3-2-8-9-0-0-6-6-3-8-7" />
    <circle
       transform="scale(-1,1)"
       style="display:inline;fill:#ffffff;fill-opacity:1;stroke:#000000;stroke-width:1.92029178;stroke-miterlimit:4;stroke-dasharray:none;stroke-opacity:1"
       r="10.183886"
       cy="1010.5388"
       cx="-221.79515"
       id="path3680-6-7-3-2-8-9-0-0-6-6-3-4-3" />
    <circle
       transform="scale(-1,1)"
       style="display:inline;fill:#ffffff;fill-opacity:1;stroke:#000000;stroke-width:1.92029178;stroke-miterlimit:4;stroke-dasharray:none;stroke-opacity:1"
       r="10.183886"
       cy="1033.4615"
       cx="-221.55873"
       id="path3680-6-7-3-2-8-9-0-0-6-6-3-4-5-6" />
    <circle
       transform="scale(-1,1)"
       style="display:inline;fill:#ffffff;fill-opacity:1;stroke:#000000;stroke-width:1.92029178;stroke-miterlimit:4;stroke-dasharray:none;stroke-opacity:1"
       r="10.183886"
       cy="1033.6978"
       cx="-243.2739"
       id="path3680-6-7-3-2-8-9-0-0-6-6-3-4-0-5" />
    <circle
       r="9.817152"
       transform="scale(-1,1)"
       style="display:inline;fill:none;fill-opacity:1;stroke:#ffffff;stroke-width:1.51011038;stroke-miterlimit:4;stroke-dasharray:none;stroke-opacity:1"
       cy="1033.2255"
       cx="-269.47903"
       id="path3680-6-5-6-2-2-9-2-1-3-6-1-6-1" />
    <circle
       transform="scale(-1,1)"
       style="display:inline;fill:#ffffff;fill-opacity:1;stroke:#000000;stroke-width:1.92029178;stroke-miterlimit:4;stroke-dasharray:none;stroke-opacity:1"
       r="10.183886"
       cy="965.11316"
       cx="-332.86432"
       id="path3680-6-7-3-2-8-9-0-0-6-6-3-3-29" />
    <circle
       transform="scale(-1,1)"
       style="display:inline;fill:#ffffff;fill-opacity:1;stroke:#000000;stroke-width:1.92029178;stroke-miterlimit:4;stroke-dasharray:none;stroke-opacity:1"
       r="10.183886"
       cy="987.37946"
       cx="-321.2851"
       id="path3680-6-7-3-2-8-9-0-0-6-6-3-3-2-0-9" />
    <circle
       transform="scale(-1,1)"
       style="display:inline;fill:#ffffff;fill-opacity:1;stroke:#000000;stroke-width:1.92029178;stroke-miterlimit:4;stroke-dasharray:none;stroke-opacity:1"
       r="10.183886"
       cy="1010.8801"
       cx="-321.0488"
       id="path3680-6-7-3-2-8-9-0-0-6-6-3-3-6-0" />
    <circle
       transform="scale(-1,1)"
       style="display:inline;fill:#ffffff;fill-opacity:1;stroke:#000000;stroke-width:1.92029178;stroke-miterlimit:4;stroke-dasharray:none;stroke-opacity:1"
       r="10.183886"
       cy="1032.7526"
       cx="-333.28473"
       id="path3680-6-7-3-2-8-9-0-0-6-6-3-3-6-1-5-8" />
    <circle
       transform="scale(-1,1)"
       style="display:inline;fill:#ffffff;fill-opacity:1;stroke:#000000;stroke-width:1.92029178;stroke-miterlimit:4;stroke-dasharray:none;stroke-opacity:1"
       r="10.183886"
       cy="1032.4636"
       cx="-355.13101"
       id="path3680-6-7-3-2-8-9-0-0-6-6-3-3-6-1-54-5" />
    <circle
       transform="scale(-1,1)"
       style="display:inline;fill:#ffffff;fill-opacity:1;stroke:#000000;stroke-width:1.92029178;stroke-miterlimit:4;stroke-dasharray:none;stroke-opacity:1"
       r="10.183886"
       cy="1010.3022"
       cx="-353.97552"
       id="path3680-6-7-3-2-8-9-0-0-6-6-3-3-6-1-7-0" />
    <circle
       transform="scale(-1,1)"
       style="display:inline;fill:#ffffff;fill-opacity:1;stroke:#000000;stroke-width:1.92029178;stroke-miterlimit:4;stroke-dasharray:none;stroke-opacity:1"
       r="10.183886"
       cy="965.27051"
       cx="-354.05435"
       id="path3680-6-7-3-2-8-9-0-0-6-6-3-3-65-9" />
    <circle
       r="9.817152"
       transform="scale(-1,1)"
       style="display:inline;fill:none;fill-opacity:1;stroke:#ffffff;stroke-width:1.51011038;stroke-miterlimit:4;stroke-dasharray:none;stroke-opacity:1"
       cy="1033.1514"
       cx="-291.96045"
       id="path3680-6-5-6-2-2-9-2-1-3-6-1-6-1-1" />
    <circle
       id="circle6137"
       cx="-291.96045"
       cy="1010.0447"
       style="display:inline;fill:none;fill-opacity:1;stroke:#ffffff;stroke-width:1.51011038;stroke-miterlimit:4;stroke-dasharray:none;stroke-opacity:1"
       transform="scale(-1,1)"
       r="9.817152" />
    <circle
       r="9.817152"
       transform="scale(-1,1)"
       style="display:inline;fill:none;fill-opacity:1;stroke:#ffffff;stroke-width:1.51011038;stroke-miterlimit:4;stroke-dasharray:none;stroke-opacity:1"
       cy="990.69287"
       cx="-270.00925"
       id="circle6139" />
    <circle
       id="circle6141"
       cx="-270.29813"
       cy="966.71979"
       style="display:inline;fill:none;fill-opacity:1;stroke:#ffffff;stroke-width:1.51011038;stroke-miterlimit:4;stroke-dasharray:none;stroke-opacity:1"
       transform="scale(-1,1)"
       r="9.817152" />
    <circle
       r="9.817152"
       transform="scale(-1,1)"
       style="display:inline;fill:none;fill-opacity:1;stroke:#ffffff;stroke-width:1.51011038;stroke-miterlimit:4;stroke-dasharray:none;stroke-opacity:1"
       cy="967.00867"
       cx="-293.40451"
       id="circle6143" />
  </g>
</svg>
