<?xml version="1.0" encoding="UTF-8"?>
<svg xmlns="http://www.w3.org/2000/svg" viewBox="0 0 372 262" width="105mm" height="74mm">
<path d="m 167,255 c 1.53,-0.12 1.77,-0.24 1.77,-0.85 0,-0.39 -0.96,-2.16 -2.14,-3.94 -1.18,-1.77 -2.80,-4.48 -3.60,-6.00 l -1.45,-2.77 0.93,-5.45 c 0.51,-3.00 1.75,-8.43 2.76,-12.06 1.00,-3.63 1.99,-7.19 2.18,-7.90 0.19,-0.71 0.41,-1.23 0.49,-1.16 0.46,0.46 0.91,6.45 1.12,14.93 0.19,8.07 0.33,9.95 0.78,10.79 0.30,0.55 1.85,2.29 3.43,3.87 3.24,3.21 3.52,3.87 2.89,6.90 -0.33,1.63 -0.31,2.02 0.14,2.73 l 0.54,0.82 6.99,0 c 3.84,0 7.21,-0.14 7.48,-0.31 0.68,-0.43 0.19,-1.26 -3.10,-5.33 -4.87,-5.99 -6.99,-9.00 -7.55,-10.70 -0.83,-2.54 -0.99,-14.79 -0.31,-24.07 0.29,-4.01 0.69,-10.86 0.88,-15.22 0.36,-8.19 0.77,-12.67 1.38,-15.00 0.42,-1.60 4.20,-10.03 7.03,-15.68 2.30,-4.59 4.19,-7.78 6.21,-10.45 0.76,-1.02 1.58,-2.28 1.81,-2.81 0.54,-1.25 1.06,-6.31 1.07,-10.45 l 0.00,-3.31 1.59,-2.08 c 2.96,-3.87 5.46,-6.14 7.68,-6.97 1.11,-0.41 2.65,-0.83 3.42,-0.92 1.89,-0.22 2.26,0.40 3.16,5.47 0.89,5.00 1.09,5.42 1.81,3.86 l 0.53,-1.16 -0.17,1.20 c -0.14,0.99 0.27,3.11 0.71,3.65 0.06,0.07 0.41,-0.23 0.78,-0.67 l 0.67,-0.80 0.01,2.08 c 0.00,1.14 0.16,2.18 0.34,2.29 0.18,0.11 0.66,-0.34 1.06,-1.03 l 0.73,-1.23 0.54,1.47 c 0.29,0.80 0.67,1.47 0.84,1.47 0.16,0 0.52,-0.79 0.79,-1.77 0.48,-1.73 1.08,-2.37 1.08,-1.16 0,0.33 0.19,0.87 0.42,1.19 0.70,0.96 1.63,-0.02 1.85,-1.96 l 0.18,-1.63 0.37,1.14 c 0.20,0.63 0.52,1.12 0.70,1.10 0.18,-0.02 0.80,-1.17 1.37,-2.54 0.67,-1.62 1.51,-2.96 2.40,-3.83 3.74,-3.63 9.25,-9.70 10.32,-11.38 1.39,-2.18 2.29,-2.85 3.93,-2.94 2.89,-0.14 3.05,-0.08 5.19,2.24 1.13,1.22 2.81,2.66 3.74,3.20 1.65,0.95 1.77,0.96 6.91,0.96 8.44,0 8.67,-0.16 9.19,-6.69 0.41,-5.14 -0.07,-11.58 -1.09,-14.27 -0.77,-2.06 -2.60,-4.42 -4.55,-5.88 -1.38,-1.03 -10.98,-6.36 -14.39,-8.00 -1.08,-0.52 -3.13,-2.05 -4.75,-3.55 -2.32,-2.15 -3.24,-2.77 -5.00,-3.36 -1.18,-0.39 -2.53,-1.01 -2.99,-1.37 l -0.83,-0.64 0.83,-0.91 c 0.88,-0.96 3.82,-2.49 4.78,-2.50 0.87,-0.00 13.26,-3.87 16.05,-5.00 2.70,-1.10 10.40,-5.36 14.00,-7.75 4.56,-3.02 8.52,-8.19 8.90,-11.62 0.19,-1.75 -0.40,-2.42 -1.87,-2.10 -0.54,0.11 -4.20,2.03 -8.13,4.25 -3.93,2.21 -7.28,3.94 -7.45,3.84 -0.17,-0.10 -0.32,-2.87 -0.33,-6.16 -0.02,-6.35 -0.24,-8.52 -0.89,-8.74 -1.06,-0.35 -3.84,5.74 -6.01,13.24 -0.85,2.95 -1.86,5.93 -2.24,6.60 -1.23,2.20 -5.12,3.69 -9.82,3.78 -3.18,0.05 -4.23,-0.41 -6.60,-2.99 l -1.40,-1.52 2.12,-2.53 c 1.16,-1.39 2.99,-3.77 4.06,-5.30 2.02,-2.89 7.92,-14.21 9.52,-18.27 1.19,-3.03 2.00,-7.51 1.48,-8.15 -1.17,-1.41 -2.80,0.37 -7.72,8.51 -2.16,3.57 -3.93,6.05 -5.47,7.65 -1.25,1.30 -2.33,2.30 -2.41,2.22 -0.07,-0.07 0.37,-1.65 0.99,-3.51 2.59,-7.78 2.68,-8.32 2.68,-17.03 -0.00,-8.99 -0.25,-10.74 -2.56,-17.43 -1.44,-4.18 -1.77,-4.82 -2.53,-4.82 -0.38,0 -0.46,1.58 -0.47,9.02 -0.01,10.89 -0.35,15.25 -1.38,17.69 -1.68,3.99 -5.25,8.95 -7.14,9.93 -0.83,0.43 -1.05,0.43 -1.69,0.00 -1.42,-0.93 -2.90,-7.38 -4.94,-21.48 -2.90,-20.10 -3.32,-20.80 -6.23,-10.28 -2.90,10.52 -3.58,12.78 -4.53,15.16 -0.52,1.30 -1.08,2.37 -1.24,2.37 -0.16,0 -3.11,-4.22 -6.55,-9.39 -8.07,-12.14 -12.01,-16.52 -12.40,-13.79 -0.05,0.40 1.34,5.33 3.11,10.95 3.48,11.05 3.84,12.40 3.30,12.40 -0.35,0 -3.94,-3.07 -9.85,-8.42 -7.05,-6.39 -9.70,-8.19 -12.57,-8.59 -3.40,-0.47 -6.98,1.48 -8.25,4.50 -0.64,1.54 -0.65,4.91 -0.01,6.44 0.59,1.42 8.38,9.55 15.08,15.75 4.97,4.59 9.12,7.60 15.86,11.47 11.58,6.64 21.31,12.46 22.86,13.65 3.08,2.37 6.67,7.68 6.41,9.48 -0.09,0.66 -0.28,0.72 -2.17,0.67 -1.13,-0.03 -2.53,-0.29 -3.10,-0.59 -0.56,-0.29 -2.11,-1.82 -3.44,-3.39 -2.58,-3.06 -5.28,-5.11 -8.22,-6.20 -2.58,-0.96 -6.98,-1.80 -9.76,-1.85 -2.01,-0.03 -2.40,0.04 -2.5,0.54 -0.06,0.32 0.95,2.52 2.26,4.89 2.42,4.36 4.33,8.70 3.98,9.05 -0.10,0.10 -1.53,-0.25 -3.17,-0.80 -5.02,-1.66 -7.62,-1.92 -19.51,-1.92 -13.48,0 -18.50,0.53 -25.46,2.70 -3.39,1.06 -6.22,2.52 -12.01,6.23 -6.27,4.01 -9.71,5.72 -11.92,5.94 -1.07,0.10 -5.04,-0.18 -9.44,-0.68 -10.28,-1.18 -16.98,-1.55 -28.16,-1.54 -10.31,0 -16.31,0.37 -19.71,1.21 -6.12,1.51 -16.11,6.20 -26.99,12.66 -10.80,6.41 -13.86,8.82 -15.52,12.24 -1.71,3.50 -3.50,12.30 -3.92,19.29 -0.17,2.91 -0.12,3.57 0.36,4.32 0.70,1.08 1.54,0.96 5.21,-0.71 5.58,-2.55 11.81,-7.81 14.06,-11.85 0.54,-0.97 1.13,-1.72 1.32,-1.65 0.51,0.16 0.75,1.75 0.80,5.15 0.04,3.39 -0.65,6.49 -4.10,18.20 -2.02,6.88 -2.08,6.96 -6.64,10.97 -7.14,6.26 -10.39,8.79 -13.99,10.92 -4.57,2.70 -8.35,5.77 -9.24,7.52 -1.11,2.18 -1.37,4.92 -1.71,18.25 -0.18,7.14 -0.41,13.90 -0.52,15.02 -0.48,4.91 -2.45,15.30 -4.56,24.11 -0.63,2.65 -0.93,4.62 -0.81,5.31 0.11,0.60 0.88,2.10 1.72,3.32 1.41,2.07 1.54,2.44 1.84,5.29 0.47,4.60 0.28,4.46 6.40,4.73 2.82,0.12 6.63,0.22 8.45,0.22 3.21,0 3.31,-0.02 3.31,-0.75 -0.00,-1.83 -3.12,-5.11 -6.64,-6.98 -3.70,-1.96 -4.11,-2.99 -4.13,-10.47 -0.02,-10.19 3.60,-28.14 8.05,-39.77 2.25,-5.89 2.82,-6.92 5.20,-9.40 2.82,-2.94 5.19,-4.42 14.34,-9.00 7.00,-3.50 19.84,-9.60 20.22,-9.60 0.35,0 -0.34,4.11 -1.07,6.24 -1.02,3.00 -1.99,4.90 -3.21,6.30 -0.53,0.60 -1.32,1.78 -1.76,2.62 -0.75,1.42 -0.80,1.86 -0.80,7.12 l 0,5.61 2.82,5.51 c 1.55,3.03 3.20,6.50 3.65,7.71 1.47,3.92 5.77,22.47 6.65,28.77 0.29,2.06 1.32,3.21 4.38,4.86 2.55,1.38 3.75,2.77 4.07,4.76 0.33,2.04 1.19,4.53 1.92,5.56 l 0.69,0.97 7.16,-0.13 c 7.84,-0.15 8.24,-0.25 8.24,-2.08 0,-1.43 -3.00,-4.26 -6.78,-6.37 -4.35,-2.44 -5.38,-3.68 -7.52,-9.04 -0.99,-2.49 -2.44,-5.93 -3.21,-7.65 -3.38,-7.50 -5.95,-23.02 -5.69,-34.29 l 0.11,-5.09 1.07,-1.46 c 2.24,-3.05 8.51,-9.69 15.39,-16.32 11.61,-11.17 11.81,-11.29 16.42,-9.88 3.61,1.10 13.00,2.98 18.70,3.76 6.35,0.85 12.96,0.80 17.20,-0.15 1.85,-0.41 4.01,-0.84 4.80,-0.94 l 1.43,-0.18 1.13,2.48 c 0.62,1.36 1.91,4.56 2.86,7.10 2.03,5.42 2.11,6.56 1.01,13.30 -0.59,3.66 -0.75,6.57 -0.97,18.51 l -0.25,14.16 -1.19,4.21 c -0.65,2.31 -1.89,6.09 -2.74,8.38 -0.85,2.29 -1.64,5.02 -1.75,6.07 -0.18,1.78 -0.10,2.07 1.36,4.85 0.92,1.74 1.76,3.93 2.06,5.34 0.50,2.39 1.39,4.07 2.46,4.64 0.65,0.35 8.81,0.69 11.44,0.47 z" fill="#fff"/>
<circle cx="222" cy="176" r="10.6" fill="#fff" stroke="#000" stroke-width="2"/>
<circle cx="222" cy="198" r="10.6" fill="#fff" stroke="#000" stroke-width="2"/>
<circle cx="222" cy="220" r="10.6" fill="#fff" stroke="#000" stroke-width="2"/>
<circle cx="222" cy="243" r="10.6" fill="#fff" stroke="#000" stroke-width="2"/>
<circle cx="244" cy="243" r="10.6" fill="#fff" stroke="#000" stroke-width="2"/>
<circle cx="270" cy="176" r="10.0" fill="none" stroke="#fff" stroke-width="2"/>
<circle cx="270" cy="200" r="10.0" fill="none" stroke="#fff" stroke-width="2"/>
<circle cx="270" cy="243" r="10.0" fill="none" stroke="#fff" stroke-width="2"/>
<circle cx="293" cy="220" r="10.0" fill="none" stroke="#fff" stroke-width="2"/>
<circle cx="293" cy="243" r="10.0" fill="none" stroke="#fff" stroke-width="2"/>
<circle cx="293" cy="176" r="10.0" fill="none" stroke="#fff" stroke-width="2"/>
<circle cx="321" cy="197" r="10.6" fill="#fff" stroke="#000" stroke-width="2"/>
<circle cx="321" cy="220" r="10.6" fill="#fff" stroke="#000" stroke-width="2"/>
<circle cx="332" cy="177" r="10.6" fill="#fff" stroke="#000" stroke-width="2"/>
<circle cx="332" cy="240" r="10.6" fill="#fff" stroke="#000" stroke-width="2"/>
<circle cx="354" cy="175" r="10.6" fill="#fff" stroke="#000" stroke-width="2"/>
<circle cx="354" cy="220" r="10.6" fill="#fff" stroke="#000" stroke-width="2"/>
<circle cx="354" cy="243" r="10.6" fill="#fff" stroke="#000" stroke-width="2"/>
</svg>
