<?xml version="1.0" encoding="utf-8" ?>
<svg xmlns="http://www.w3.org/2000/svg" width="600" height="325" viewBox="0 0 120 65">
<rect width="120" height="65" fill="#222" />

<g transform="scale(0.7) translate(68,-15)">
  <g stroke-width="0.4" stroke="#555">
    <!--
    <path d="M 20, 20 h 80" />
    <path d="M 20, 30 h 80" />
    <path d="M 20, 40 h 80" />
    <path d="M 20, 50 h 80" />
    -->
    <path d="M 20, 60 h 80" />
    <path d="M 20, 70 h 80" />
    <path d="M 20, 80 h 80" />
    <path d="M 20, 90 h 80" />
    <path d="M 20,100 h 80" />

    <path d="M  20,55 v 45" />
    <path d="M  30,55 v 45" />
    <path d="M  40,55 v 45" />
    <path d="M  50,55 v 45" />
    <path d="M  60,55 v 45" />
    <path d="M  70,55 v 45" />
    <path d="M  80,55 v 45" />
    <path d="M  90,55 v 45" />
    <path d="M 100,55 v 45" />
  </g>

  <g stroke-width=".7" stroke="#FFF">
    <g stroke="none" fill="#222">
      <circle cx="32.0" cy=" 70.0" r="6.7" />
      <circle cx="32.0" cy=" 80.0" r="6.7" />
      <circle cx="32.0" cy=" 90.0" r="6.7" />
      <circle cx="32.0" cy="100.0" r="6.7" />
      <circle cx="42.0" cy="100.0" r="6.7" />

      <circle cx="62.0" cy=" 70.0" r="6.8" />
      <circle cx="52.0" cy=" 71.5" r="6.8" />
      <circle cx="52.5" cy=" 82.0" r="6.8" />
      <circle cx="61.5" cy=" 88.0" r="6.8" />
      <circle cx="62.0" cy=" 98.5" r="6.8" />
      <circle cx="52.0" cy="100.0" r="6.8" />

      <circle cx="88.0" cy=" 70.0" r="6.7" />
      <circle cx="78.0" cy=" 71.5" r="6.7" />
      <circle cx="72.0" cy=" 80.0" r="6.7" />
      <circle cx="72.0" cy=" 90.0" r="6.7" />
      <circle cx="78.0" cy=" 98.5" r="6.7" />
      <circle cx="88.0" cy="100.0" r="6.7" />
      <circle cx="88.0" cy=" 90.0" r="6.7" />
    </g>

    <g fill="#FFF">
      <circle cx="32.0" cy=" 70.0" r="4.7" />
      <circle cx="32.0" cy=" 80.0" r="4.7" />
      <circle cx="32.0" cy=" 90.0" r="4.7" />
      <circle cx="32.0" cy="100.0" r="4.7" />
      <circle cx="42.0" cy="100.0" r="4.7" />
    </g>
    <g fill="#222">
      <circle cx="62.0" cy=" 70.0" r="4.8" />
      <circle cx="52.0" cy=" 71.5" r="4.8" />
      <circle cx="52.5" cy=" 82.0" r="4.8" />
      <circle cx="61.5" cy=" 88.0" r="4.8" />
      <circle cx="62.0" cy=" 98.5" r="4.8" />
      <circle cx="52.0" cy="100.0" r="4.8" />
    </g>
    <g fill="#FFF">
      <circle cx="88.0" cy=" 70.0" r="4.7" />
      <circle cx="78.0" cy=" 71.5" r="4.7" />
      <circle cx="72.0" cy=" 80.0" r="4.7" />
      <circle cx="72.0" cy=" 90.0" r="4.7" />
      <circle cx="78.0" cy=" 98.5" r="4.7" />
      <circle cx="88.0" cy="100.0" r="4.7" />
      <circle cx="88.0" cy=" 90.0" r="4.7" />
    </g>
  </g>
</g>

<g transform="scale(3.3) translate(0,0)">
<path fill="#fff" stroke="#222" stroke-width=".9" paint-order="stroke fill" d="M10.773 19.167c-.098-.588.06-1.31.408-1.872.108-.174.412-.604.421-.595s-.053.24-.076.299c-.07.183.476-.624.641-.947l.066-.129.033.345c.085.893-.122 1.619-.628 2.203-.026.03.021-.23.119-.661l.04-.219c-.008-.025-.375.438-.539.681-.202.298-.327.565-.405.861l-.05.173c-.003.003-.017-.06-.031-.14zm-1.174-1.148c-.385-.401-.93-1.319-.93-1.566 0-.014-.008-.025-.018-.025-.056 0 .008.674.096 1l.043.159-.043-.053c-.189-.233-.384-.608-.599-1.15-.25-.631-.42-.963-.648-1.265-.111-.148-.138-.168-.104-.078.011.028.046.159.079.29.053.21.069.306.107.611.008.061-.007.041-.113-.15-.422-.77-.904-1.275-1.536-1.613-.196-.104-.196-.115.009.137.498.612.867 1.524.868 2.139v.088l-.082-.14c-.155-.266-.314-.473-.662-.869-.454-.516-.62-.8-.699-1.201l-.03-.151-.055.039c-.106.075-.339.312-.471.479-.158.2-.156.201-.099-.011.122-.449.386-.926.722-1.309.058-.066.1-.119.092-.119s-.243.076-.526.169c-.604.198-.573.201-.336-.029.492-.478.996-.88 1.461-1.165l.2-.137c-.015-.015-.414.03-.601.068l-.182.028c-.043-.043.67-.372.929-.428.09-.019.039-.039-.169-.064-.327-.04.025-.145.83-.247.348-.044.354-.048.165-.106l-.128-.045c.002-.002.108-.021.234-.041.326-.053.324-.05.113-.114-.174-.053-.511-.199-.511-.221 0-.006.122-.008.272-.005.529.011 1.272-.142 1.654-.342l.082-.043-.159-.002c-.134-.002-.151-.005-.106-.02.404-.14.747-.294.942-.423.102-.067.095-.051-.035.086-.145.152-.12.148.277-.045.029-.014-.05.105-.161.241l-.105.14c.01.01.412-.174.53-.242.066-.038.118-.064.114-.057-.145.283-.341.726-.327.74.003.003.109-.086.235-.197l.24-.203c.006 0-.028.092-.076.206-.185.437-.264.797-.262 1.203l.001.228.067-.186.121-.301.053-.115.013.168c.025.326.083.594.216 1l.3.822c.005.005.006-.141.003-.323v-.331c.081 0 .638 1.394.64 1.601 0 .01-.043-.058-.095-.15-.103-.182-.259-.413-.271-.401-.004.004.009.066.029.138.143.513.16 1.052.048 1.511-.037.152-.039.156-.044.08-.007-.117-.056-.454-.073-.5-.012-.034-.019-.024-.044.066a2.76 2.76 0 0 1-.394.825c-.12.167-.121.167-.066-.002.195-.596.206-1.303.032-1.964-.083-.314-.305-.883-.283-.725.147 1.075.001 1.909-.475 2.713l-.157.283-.075.145-.006-.115c-.008-.156.025-.501.077-.793s.05-.289-.046-.124c-.455.776-.465 1.564-.032 2.439.145.292.148.289-.063.069zm3.592-1.256a1.45 1.45 0 0 0 .074-.485c.011-.302-.005-.435-.088-.739-.072-.265-.069-.269-.135.133l-.08.438-.024.097-.062-.133c-.248-.529-.285-1.05-.109-1.519.053-.14.053-.142-.003-.09a1.88 1.88 0 0 0-.282.401c-.083.165-.087.162-.072-.05.047-.679.543-1.311 1.211-1.54l.095-.033-.057.065c-.13.148-.244.359-.144.267.233-.216.65-.38 1.007-.399.269-.014.291-.002.148.078-.416.234-.67.82-.571 1.315.018.089.025.078.056-.088.021-.111.121-.381.136-.366a1.31 1.31 0 0 1 .032.165 5.503 5.503 0 0 0 .074.361c.097.399.06.765-.104 1.044l-.057.097-.012-.168c-.018-.248-.154-.647-.156-.458-.004.492-.4 1.262-.819 1.594-.069.054-.07.055-.057.013zm3.198-2.502c-.327-.079-.549-.296-.72-.703-.247-.589-.541-.945-.986-1.197-.083-.047-.08-.038.037.112.105.135.2.274.186.274a.675.675 0 0 1-.094-.042c-.136-.069-.331-.133-.629-.207-.389-.097-.545-.149-.725-.239l-.155-.07c0 .029.195.231.306.319.159.125.15.133-.105.09-.41-.07-.841-.286-.986-.493l-.027-.039-.001.039c-.004.154.213.512.426.703.049.044.086.081.081.081-.441 0-1.136-.639-1.315-1.208-.04-.128-.055-.106-.071.104-.014.189.019.405.096.633.061.181.055.185-.071.051-.392-.415-.539-.99-.405-1.588.027-.118.015-.116-.075.012-.117.166-.155.235-.209.374l-.049.126-.012-.096c-.031-.249.054-.57.298-1.117.194-.436.269-.725.256-.987l-.005-.115-.033.097c-.09.263-.243.506-.465.742l-.124.132.008-.149c.006-.121.001-.168-.029-.245l-.036-.096.037-.052c.034-.047.103-.238.103-.283 0-.01-.039.018-.086.062-.136.127-.174.141-.318.116-.116-.02-.135-.018-.359.036-1.081.262-1.768-.002-2.555-.981-.286-.356-.284-.36.323-.485.837-.172 1.343-.096 1.986.299.41.252.611.337.791.337a.93.93 0 0 1 .438.234c.025.053-.01-.153-.04-.24l-.034-.096.082-.011c.122-.017.257-.087.356-.186.114-.114.112-.132-.009-.071-.23.116-.382.09-.631-.109-1.076-.857-1.872-1.071-3.173-.852-1.408.237-2.631-.039-4.245-.958-.223-.127-.224-.123-.006.072a6.24 6.24 0 0 0 2.587 1.412c.375.098-.009.072-.628-.043-.629-.117-.59-.114-1.548-.117-1.065-.003-1.335-.037-1.698-.212-.307-.148-.287-.215.071-.24 1.158-.081 1.251-.358.236-.706-.955-.327-1.431-.644-1.666-1.108-.128-.254-.081-.294.181-.153.793.43 1.644.534 1.636.2-.003-.111-.08-.224-.379-.559-.717-.804-.992-1.492-.823-2.054.065-.215.109-.195.247.113.372.831.994 1.423 1.544 1.468.383.032.431-.124.235-.759-.265-.859-.303-1.578-.096-1.817.081-.093.095-.066.244.465.281 1 .957 1.846 1.565 1.959.3.056.359-.132.252-.8-.136-.854-.118-1.42.062-1.974.13-.399.393-.802.498-.761.031.012.03.069-.013.594-.12 1.485.88 3.633 1.543 3.312.187-.09.21-.202.227-1.074.017-.881.061-1.17.23-1.522.185-.385.236-.315.265.363.047 1.084.256 1.931.603 2.443.364.536.79.159 1.087-.961.129-.485.193-.524.259-.159.083.461.018.875-.265 1.685-.367 1.053-.134 1.407 1.463 2.221.316.161.358.195.388.31l.016.061.047-.071c.059-.088.078-.176.048-.212-.037-.045-.005-.053.21-.052.275.002.29.011.186.119-.109.114-.101.114.16-.008.569-.266.741-.264 1.312.02l.504.223a.45.45 0 0 0-.074-.062c-.041-.03-.066-.055-.057-.055s.113.013.229.029c.601.083 1.31.03 2.264-.171 1.134-.238 1.786-.199 2.484.149.567.282.784.584.815 1.134.014.245.015.249.095.419.281.593-.039 1.127-.638 1.066l-.113-.012.096-.055c.154-.089.16-.093.145-.116-.049-.079-.22-.089-.443-.026-.406.114-.745.053-1.124-.205-.712-.483-1.378-.19-1.859.82-.389.816-.122 1.854.608 2.367.401.281 1.283.283 1.117.002-.064-.108-.015-.13.072-.033.202.222.085.506-.242.584-.025.006-.105.069-.177.14-.275.27-.654.378-1.02.289zm.712-.397l.053-.015-.071-.013a1.33 1.33 0 0 1-.792-.401l-.172-.164c0 .098.262.464.387.541s.417.102.595.051zm-1.69-2.438a3.06 3.06 0 0 1 .869-1.517l.169-.171c-.235 0-.945.63-1.162 1.031-.09.167-.081.17.074.02.136-.132.15-.134.11-.023-.07.195-.154.83-.11.83.005 0 .027-.077.049-.171zm3.376-1.787c.254-.164.104-.492-.332-.722-.219-.116-.293-.186-.315-.301-.016-.083-.093-.107-.175-.054-.183.12-.143.431.078.598.171.13.255.214.307.306.111.197.29.268.437.174zm-1.408-.207h.207l-.063-.07c-.035-.038-.104-.154-.154-.258l-.091-.188V8.74c0-.231.046-.332.234-.518l.13-.128-.102.038c-.488.181-.633.567-.388 1.031.051.097.067.142.051.148a.887.887 0 0 0-.178.147c-.003.008.029.006.071-.005s.169-.019.284-.019zm-3.902-.17c.1-.045.228-.167.29-.275.096-.166.057-.158-.111.026l-.172.178c-.005 0-.038.024-.071.053-.07.06-.044.067.065.018zm-3.278-.134a1.45 1.45 0 0 0 .176-.059l.073-.032-.08-.013c-.279-.045-.481-.149-.824-.427a1.71 1.71 0 0 0-1.437-.414c-.239.027-.243.038-.035.085.377.085.628.212.92.467.428.374.806.497 1.207.393zm3.404-.213a.77.77 0 0 0 .185-.148c.073-.08.108-.105.163-.115a.46.46 0 0 0 .273-.162c.091-.103.092-.124.007-.073-.054.032-.093.039-.21.039h-.143l-.28-.142-.28-.142h-.16a.47.47 0 0 0-.258.046c-.095.045-.275.191-.203.165l.124-.045c.203-.074.448-.027.268.051-.095.041-.331.238-.31.259.006.006.049.003.096-.008.106-.024.124-.017.138.051.043.213.367.334.592.222zm-.231-.347c-.102-.044-.107-.067-.014-.067.072 0 .16.03.16.055 0 .041-.067.046-.147.012zm3.78 4.727a.919.919 0 0 1-.391-.165c-.109-.081-.194-.166-.147-.148l.135.055c.166.069.435.117.651.117.203 0 .203 0 .154.081s-.175.096-.402.058zm.622-.211c-.006-.01-.057-.041-.112-.069-.317-.16-.488-.631-.4-1.099.124-.655.793-1.374 1.238-1.332l.115.011-.098.04c-1.01.41-1.413 1.598-.797 2.348.054.066.091.119.081.119s-.022-.008-.028-.018zm-.878-.183c-.424-.15-.715-.583-.737-1.095-.01-.238-.013-.235.131-.138.185.124.281.276.407.642.099.29.136.36.308.584.045.059.04.059-.109.007zm-.104-2.638a.62.62 0 0 1 .738-.105c.13.072.158.104.061.07-.243-.086-.546-.067-.772.047l-.071.036zm-2.628-2.515a1.06 1.06 0 0 1-.478-.156c-.398-.218-.784-.256-1.075-.106-.043.022-.075.022-.244-.002-.107-.015-.257-.027-.333-.027-.134 0-.143-.003-.331-.103l-.467-.249c-.284-.152-.691-.401-.691-.423 0-.016.144 0 .451.049.558.089.6-.023.25-.662-.336-.613-.273-.654.281-.185.541.457.806.562.988.391.249-.233.189-.839-.154-1.57-.127-.271-.129-.276-.092-.308.11-.091.529.364.973 1.058l.243.359c.464.587.837-.235.641-1.411-.084-.507.02-.533.274-.067.164.3.22.474.381 1.179.121.527.402.534.653.014.219-.452.268-.972.168-1.761-.043-.34.064-.329.248.026.372.717.372 1.627.001 2.471-.084.191-.084.196.022.168.568-.149 1.136-.765 1.377-1.495.119-.361.171-.363.213-.011.119.978-.672 1.857-2.159 2.399-.448.164-.502.191-.642.331l-.119.12-.111-.002c-.061-.001-.182-.013-.27-.026z"/>
</g>
</svg>
